# xmcd CD database file
#
# Track frame offsets:
#	150
#	16493
#	35388
#	49843
#	63972
#	81036
#	93690
#	107134
#	125988
#	139758
#	154213
#	171583
#	185483
#	205986
#	220113
#	241347
#
# Disc length: 3402 seconds
#
# Revision: 1
# Processed by: cddbd v1.5.1PL0 Copyright (c) Steve Scherf et al.
# Submitted via: CDex 1.51
#
DISCID=ec0d4810
DTITLE=Lena Horne - Every Time We Say Goodbye
DYEAR=2002
DGENRE=Blues
TTITLE0=Every Tiem We Say Goodbye
TTITLE1=When I Fall In Love
TTITLE2=A Fine Romance
TTITLE3=It Could Happen To You
TTITLE4=September Song
TTITLE5=Whispering
TTITLE6=Sing My Heart
TTITLE7=Close Enough For Heart
TTITLE8=Squeeze Me
TTITLE9=Ours
TTITLE10=Roundabout
TTITLE11=Hesitation Blues
TTITLE12=Joy
TTITLE13=The Eagle And Me
TTITLE14=Look To The Rainbow
TTITLE15=Beale Street Blues
EXTD=ladies sing the blues YEAR: 2002
EXTT0=
EXTT1=
EXTT2=
EXTT3=
EXTT4=
EXTT5=
EXTT6=
EXTT7=
EXTT8=
EXTT9=
EXTT10=
EXTT11=
EXTT12=
EXTT13=
EXTT14=
EXTT15=
PLAYORDER=
